#!Matlab matrix to amc conversion
:FULLY-SPECIFIED
:DEGREES
16
root 9.192140 16.357400 -29.724600 1.556693 1.634016 0.209687
lowerback 5.750000 -0.573981 -2.336402
upperback 1.156891 -0.913808 0.500796
thorax -1.962191 -0.434608 1.919303
lowerneck -9.210270 5.741660 1.953252
upperneck 10.653444 7.694980 -2.858822
head 5.487688 3.729683 -0.847098
rclavicle -0.000000 0.000000
rhumerus -36.609709 -6.930599 -80.502116
rradius 23.722409
rwrist -6.040348
rhand -18.462896 15.604285
rfingers 7.125020
rthumb 7.803943 -14.150556
lclavicle -0.000000 0.000000
lhumerus -31.430195 2.073799 86.025137
lradius 50.401983
lwrist 22.335475
lhand -20.318035 21.758225
lfingers 7.125020
lthumb 6.020017 51.534959
rfemur -21.493237 4.500506 17.665480
rtibia 50.782068
rfoot -10.695899 -16.068877
rtoes -13.523713
lfemur -1.935230 -3.877825 -28.823894
ltibia 25.227888
lfoot -17.587930 9.896609
ltoes -5.845463
17
root 9.191770 16.245600 -29.440800 1.523166 1.634016 0.268880
lowerback 5.819309 -0.906406 -2.685946
upperback 1.143678 -1.375851 0.662533
thorax -1.979505 -0.660998 2.315515
lowerneck -9.451597 5.598545 1.746785
upperneck 10.772523 7.520057 -2.692128
head 5.558787 3.635099 -0.760693
rclavicle -0.000000 0.000000
rhumerus -39.424017 -10.857166 -77.835682
rradius 20.981498
rwrist -3.414454
rhand -18.155708 16.034206
rfingers 7.125020
rthumb 8.102298 -13.732809
lclavicle -0.000000 0.000000
lhumerus -30.377672 -0.185335 86.318437
lradius 55.136834
lwrist 22.817514
lhand -21.025002 19.907957
lfingers 7.125020
lthumb 5.347063 49.700730
rfemur -23.378566 5.570512 16.717819
rtibia 42.429945
rfoot -12.741874 -15.646356
rtoes -13.547196
lfemur 1.572862 -4.311756 -29.052445
ltibia 22.811595
lfoot -17.778664 9.312703
ltoes -6.478537
18
root 9.208550 16.156600 -29.151500 1.474970 1.634016 0.345061
lowerback 5.885016 -1.236668 -3.025855
upperback 1.135307 -1.834755 0.824511
thorax -1.985851 -0.885845 2.708808
lowerneck -9.728193 5.455100 1.537810
upperneck 10.887580 7.342799 -2.526065
head 5.628924 3.540075 -0.674242
rclavicle -0.000000 0.000000
rhumerus -42.287473 -14.876998 -75.091045
rradius 18.221231
rwrist -0.718552
rhand -17.852129 16.399821
rfingers 7.125020
rthumb 8.397023 -13.389637
lclavicle -0.000000 0.000000
lhumerus -29.313096 -2.436953 86.607174
lradius 59.870866
lwrist 23.296391
lhand -21.734291 18.055100
lfingers 7.125020
lthumb 4.671942 47.864396
rfemur -25.230502 6.575967 15.785205
rtibia 33.634961
rfoot -14.790320 -15.216481
rtoes -13.794575
lfemur 5.081829 -4.739710 -29.268521
ltibia 20.270574
lfoot -17.901517 8.725041
ltoes -7.081878
19
root 9.222000 16.080900 -28.855000 1.432849 1.634016 0.109772
lowerback 5.616652 -1.468433 -3.116563
upperback 1.120708 -2.127768 0.959573
thorax -1.821455 -1.036239 2.885024
lowerneck -10.183887 5.206909 1.359128
upperneck 10.959304 7.056966 -2.710488
head 5.739282 3.376042 -0.710376
rclavicle -0.000000 0.000000
rhumerus -45.267927 -17.344364 -71.411031
rradius 16.938201
rwrist 2.821599
rhand -17.406450 15.295756
rfingers 7.125020
rthumb 8.831475 -14.508901
lclavicle -0.000000 0.000000
lhumerus -29.729514 -2.504942 86.628355
lradius 61.331193
lwrist 23.213698
lhand -22.068184 17.710139
lfingers 7.125020
lthumb 4.347622 47.525867
rfemur -25.529714 6.016701 16.104985
rtibia 28.816035
rfoot -15.049529 -14.948544
rtoes -14.111373
lfemur 8.570220 -4.687955 -29.007172
ltibia 17.782853
lfoot -16.528910 8.174726
ltoes -9.606682
20
root 9.232280 16.013400 -28.551200 1.407299 1.634016 0.015357
lowerback 5.355171 -1.676271 -3.164269
upperback 1.099779 -2.392134 1.073516
thorax -1.676939 -1.172257 3.032789
lowerneck -10.593447 4.960589 1.194824
upperneck 11.045588 6.773244 -2.883903
head 5.854017 3.213193 -0.744060
rclavicle -0.000000 0.000000
rhumerus -47.652884 -19.279686 -68.384801
rradius 15.818814
rwrist 5.804845
rhand -16.972172 14.547618
rfingers 7.125020
rthumb 9.254884 -15.217732
lclavicle -0.000000 0.000000
lhumerus -30.157628 -2.533079 86.635034
lradius 62.569294
lwrist 23.101170
lhand -22.353235 17.449829
lfingers 7.125020
lthumb 4.070818 47.271576
rfemur -25.779906 5.735611 16.386256
rtibia 26.965398
rfoot -15.120850 -14.809555
rtoes -14.164697
lfemur 11.583879 -4.637455 -28.756197
ltibia 16.207881
lfoot -15.422919 7.639909
ltoes -11.584725
21
root 9.239730 15.970900 -28.241000 1.390329 1.634016 -0.035535
lowerback 5.096815 -1.869046 -3.177172
upperback 1.071902 -2.637881 1.178852
thorax -1.547414 -1.298859 3.162392
lowerneck -10.982310 4.713033 1.037170
upperneck 11.147274 6.487917 -3.052596
head 5.974418 3.049556 -0.777787
rclavicle -0.000000 0.000000
rhumerus -49.697365 -20.900910 -65.739234
rradius 14.812795
rwrist 8.444378
rhand -16.541445 13.969349
rfingers 7.125020
rthumb 9.674899 -15.736208
lclavicle -0.000000 0.000000
lhumerus -30.645509 -2.521856 86.627343
lradius 63.634674
lwrist 22.956647
lhand -22.597313 17.264492
lfingers 7.125020
lthumb 3.833886 47.091942
rfemur -25.991073 5.664073 16.705481
rtibia 26.250525
rfoot -15.020616 -14.775789
rtoes -13.963842
lfemur 14.299805 -4.584599 -28.490379
ltibia 15.228081
lfoot -14.434759 7.114624
ltoes -13.361273
22
root 9.241850 15.946000 -27.925100 1.376631 1.634016 -0.095377
lowerback 4.837870 -2.054984 -3.157487
upperback 1.036251 -2.874330 1.287147
thorax -1.428499 -1.420659 3.282858
lowerneck -11.374627 4.461122 0.878756
upperneck 11.265356 6.197247 -3.222681
head 6.101837 2.883150 -0.814055
rclavicle -0.000000 0.000000
rhumerus -51.619984 -22.390612 -63.235567
rradius 13.874961
rwrist 10.928828
rhand -16.106484 13.417134
rfingers 7.125020
rthumb 10.099106 -16.225308
lclavicle -0.000000 0.000000
lhumerus -31.247938 -2.471077 86.605130
lradius 64.569930
lwrist 22.777355
lhand -22.807157 17.147237
lfingers 7.125020
lthumb 3.630286 46.980192
rfemur -26.171654 5.784624 17.149446
rtibia 25.963535
rfoot -14.725873 -14.841483
rtoes -13.473799
lfemur 16.877514 -4.525607 -28.183008
ltibia 14.645886
lfoot -13.431501 6.593009
ltoes -15.246420
23
root 9.242890 15.925900 -27.604900 1.361920 1.634016 -0.225871
lowerback 4.574615 -2.242017 -3.101834
upperback 0.991772 -3.110449 1.410294
thorax -1.316173 -1.542099 3.402576
lowerneck -11.794762 4.201678 0.712133
upperneck 11.400988 5.897429 -3.400323
head 6.237702 2.711960 -0.855547
rclavicle -0.000000 0.000000
rhumerus -53.626324 -23.916553 -60.647840
rradius 12.963190
rwrist 13.435744
rhand -15.659425 12.753639
rfingers 7.125020
rthumb 10.535169 -16.836887
lclavicle -0.000000 0.000000
lhumerus -32.032561 -2.379851 86.567947
lradius 65.412459
lwrist 22.559856
lhand -22.988559 17.093702
lfingers 7.125020
lthumb 3.454397 46.932117
rfemur -26.328865 6.126694 17.838844
rtibia 25.820248
rfoot -14.169123 -15.017850
rtoes -12.609152
lfemur 19.468402 -4.456263 -27.803201
ltibia 14.343903
lfoot -12.278181 6.069246
ltoes -17.569216
24
root 9.243090 15.943100 -27.273700 1.315595 1.634016 -0.133623
lowerback 4.538945 -2.210505 -1.588334
upperback 0.887598 -2.997714 1.866293
thorax -1.444096 -1.488539 3.046770
lowerneck -11.727108 4.107672 0.694410
upperneck 11.350115 5.802917 -3.665125
head 6.223151 2.652058 -0.952917
rclavicle -0.000000 0.000000
rhumerus -53.040278 -24.325949 -60.309373
rradius 12.907829
rwrist 13.700195
rhand -15.323528 12.712348
rfingers 7.125020
rthumb 10.858611 -16.881162
lclavicle -0.000000 0.000000
lhumerus -34.310992 -0.158625 86.391936
lradius 60.759187
lwrist 21.431543
lhand -21.889690 17.899675
lfingers 7.125020
lthumb 4.515963 47.690076
rfemur -25.094694 6.455254 20.490856
rtibia 29.722123
rfoot -12.730549 -13.790417
rtoes -5.191293
lfemur 16.730024 -3.227861 -25.303959
ltibia 24.145261
lfoot -7.560433 5.125333
ltoes -20.270350
25
root 9.241190 15.944900 -26.946700 1.287086 1.634016 -0.053097
lowerback 4.504758 -2.181190 -0.180696
upperback 0.796566 -2.889065 2.302923
thorax -1.559679 -1.437610 2.702795
lowerneck -11.621651 4.019034 0.683703
upperneck 11.274453 5.714523 -3.894126
head 6.197351 2.595675 -1.031894
rclavicle -0.000000 0.000000
rhumerus -52.554427 -24.784185 -59.929821
rradius 12.813693
rwrist 13.995868
rhand -15.007095 12.741950
rfingers 7.125020
rthumb 11.163495 -16.858151
lclavicle -0.000000 0.000000
lhumerus -36.369609 1.986467 86.252412
lradius 56.379573
lwrist 20.375954
lhand -20.825406 18.687100
lfingers 7.125020
lthumb 5.544579 48.430555
rfemur -23.865628 6.708468 23.032338
rtibia 32.886268
rfoot -11.750957 -12.587558
rtoes 1.131623
lfemur 14.059629 -2.013083 -22.927331
ltibia 33.444840
lfoot -3.006023 4.187530
ltoes -21.935637
26
root 9.242210 15.966300 -26.610400 1.255663 1.634016 -0.032924
lowerback 4.916483 -1.991146 0.521024
upperback 0.855177 -2.583923 2.308379
thorax -1.766899 -1.292034 2.327874
lowerneck -11.555114 3.561233 0.374969
upperneck 10.936584 5.096451 -3.336695
head 6.017195 2.316510 -0.849109
rclavicle -0.000000 0.000000
rhumerus -48.830446 -23.325721 -64.153162
rradius 14.148756
rwrist 10.102091
rhand -15.917526 13.665064
rfingers 7.125020
rthumb 10.284757 -15.996995
lclavicle -0.000000 0.000000
lhumerus -36.608459 4.389462 85.435496
lradius 48.516615
lwrist 19.211513
lhand -19.635967 20.094768
lfingers 7.125020
lthumb 6.690077 49.798648
rfemur -21.408675 6.818596 24.616404
rtibia 33.744011
rfoot -13.292428 -12.405408
rtoes 2.407048
lfemur 7.304561 -0.739349 -21.390655
ltibia 44.565319
lfoot 2.175754 7.423657
ltoes -19.169109
27
root 9.248620 16.002100 -26.265200 1.236701 1.634016 -0.031025
lowerback 5.323685 -1.803685 1.191626
upperback 0.911536 -2.282737 2.306437
thorax -1.967426 -1.148207 1.959794
lowerneck -11.495262 3.112969 0.083845
upperneck 10.609342 4.497385 -2.864725
head 5.841859 2.043185 -0.693922
rclavicle -0.000000 0.000000
rhumerus -45.486730 -21.935799 -68.105305
rradius 15.430365
rwrist 6.404260
rhand -16.808595 14.309703
rfingers 7.125020
rthumb 9.424913 -15.396222
lclavicle -0.000000 0.000000
lhumerus -36.769009 6.685873 84.638565
lradius 41.547349
lwrist 18.069990
lhand -18.475941 21.461564
lfingers 7.125020
lthumb 7.807398 51.125534
rfemur -19.129501 6.903773 26.002926
rtibia 34.226109
rfoot -14.765601 -12.222808
rtoes 3.487813
lfemur 1.009868 0.435193 -20.052797
ltibia 54.345475
lfoot 5.830810 10.520895
ltoes -16.914897
28
root 9.251840 16.054000 -25.912300 1.223295 1.634016 -0.045540
lowerback 5.731038 -1.610472 1.880580
upperback 0.967696 -1.971958 2.296944
thorax -2.166698 -0.999498 1.582654
lowerneck -11.436318 2.660473 -0.210543
upperneck 10.288867 3.890900 -2.374702
head 5.668994 1.767031 -0.531980
rclavicle -0.000000 0.000000
rhumerus -42.104324 -20.495196 -72.100730
rradius 16.734842
rwrist 2.652851
rhand -17.705034 14.924872
rfingers 7.125020
rthumb 8.560122 -14.818662
lclavicle -0.000000 0.000000
lhumerus -36.861983 8.963023 83.831177
lradius 34.636800
lwrist 16.872262
lhand -17.308082 22.816189
lfingers 7.125020
lthumb 8.932429 52.438954
rfemur -16.848822 6.968549 27.361466
rtibia 34.447706
rfoot -16.265821 -12.026360
rtoes 4.457549
lfemur -5.288182 1.606002 -18.760739
ltibia 63.859136
lfoot 8.701134 13.703843
ltoes -14.068521
